<?xml version="1.0" encoding="utf-8"?>
<!-- Generator: Adobe Illustrator 24.0.3, SVG Export Plug-In . SVG Version: 6.00 Build 0)  -->
<svg version="1.1" id="Layer_1" xmlns="http://www.w3.org/2000/svg" xmlns:xlink="http://www.w3.org/1999/xlink" x="0px" y="0px"
	 viewBox="0 0 25.4 24.6" style="enable-background:new 0 0 25.4 24.6;" xml:space="preserve">
<style type="text/css">
	.st0{fill-rule:evenodd;clip-rule:evenodd;fill:#FFFFFF;}
</style>
<path id="Github" class="st0" d="M12.7,0C5.8-0.1,0.1,5.5,0,12.5C-0.1,18,3.5,22.9,8.7,24.6c0.3,0.1,0.7,0,0.8-0.4
	c0-0.1,0-0.2,0-0.3c0-0.3,0-1.1,0-2.1c-3.5,0.8-4.3-1.7-4.3-1.7c-0.2-0.8-0.7-1.4-1.4-1.8c-1.2-0.8,0.1-0.8,0.1-0.8
	c0.8,0.1,1.5,0.6,1.9,1.3c0.7,1.3,2.4,1.8,3.7,1.1c0,0,0,0,0,0c0.1-0.6,0.3-1.2,0.8-1.7c-2.8-0.3-5.8-1.4-5.8-6.2
	c0-1.3,0.5-2.5,1.3-3.4C5.5,7.5,5.6,6.3,6,5.2c0,0,1.1-0.3,3.5,1.3c2.1-0.6,4.3-0.6,6.4,0c2.4-1.6,3.5-1.3,3.5-1.3
	c0.5,1.1,0.5,2.2,0.1,3.3c0.9,0.9,1.3,2.1,1.3,3.4c0,4.8-3,5.9-5.8,6.2c0.6,0.6,0.9,1.5,0.9,2.3c0,1.7,0,3,0,3.4
	c0,0.3,0.3,0.6,0.6,0.7c0.1,0,0.2,0,0.3,0c6.6-2.2,10.2-9.3,8.1-15.9C23.1,3.5,18.2-0.1,12.7,0z"/>
</svg>
