<?xml version="1.0" encoding="utf-8"?>
<!-- Generator: Adobe Illustrator 24.0.3, SVG Export Plug-In . SVG Version: 6.00 Build 0)  -->
<svg version="1.1" id="Layer_1" xmlns="http://www.w3.org/2000/svg" xmlns:xlink="http://www.w3.org/1999/xlink" x="0px" y="0px"
	 viewBox="0 0 25.5 25.5" style="enable-background:new 0 0 25.5 25.5;" xml:space="preserve">
<style type="text/css">
	.st0{fill-rule:evenodd;clip-rule:evenodd;fill:#FFFFFF;}
</style>
<path id="Google" class="st0" d="M25.5,12.8v0.6c0,0.2,0,0.4-0.1,0.6c0,0.4-0.1,0.7-0.2,1.1c-0.1,0.4-0.2,0.8-0.3,1.1
	c-0.2,0.8-0.6,1.6-1,2.4c-0.4,0.7-0.8,1.3-1.3,1.9c-0.2,0.3-0.5,0.6-0.7,0.8c-0.2,0.2-0.5,0.5-0.7,0.7c-0.4,0.3-0.8,0.7-1.2,0.9
	c-0.6,0.4-1.3,0.8-1.9,1.1c-1,0.5-2,0.8-3.1,1c-0.3,0.1-0.7,0.1-1,0.1c-0.1,0-0.2,0-0.4,0c-0.5,0-1,0-1.5,0c-0.4,0-0.7,0-1.1-0.1
	c-0.5-0.1-0.9-0.1-1.4-0.3c-0.5-0.1-1.1-0.3-1.6-0.5c-0.4-0.2-0.9-0.4-1.3-0.6c-0.8-0.4-1.5-0.9-2.2-1.4c-0.5-0.4-0.9-0.8-1.3-1.2
	c-0.7-0.7-1.3-1.5-1.8-2.4c-0.8-1.3-1.3-2.8-1.5-4.3c-0.1-0.3-0.1-0.6-0.1-1C0,13.5,0,13.3,0,13c0-0.3,0-0.6,0-0.9
	c0-0.4,0.1-0.9,0.1-1.3C0.3,10,0.5,9.3,0.7,8.5c0.5-1.3,1.1-2.5,2-3.6C3,4.6,3.2,4.2,3.5,3.9C3.7,3.8,3.8,3.6,4,3.4
	C4.4,3,4.9,2.7,5.3,2.3c0.6-0.4,1.2-0.8,1.8-1.1c1-0.5,2-0.8,3.1-1.1c0.3-0.1,0.6-0.1,0.9-0.1c0.3,0,0.6,0,0.9-0.1
	c0.4,0,0.7,0,1.1,0c0.5,0,0.9,0,1.4,0.1c1.8,0.3,3.5,0.9,5,1.9c0.5,0.3,1,0.7,1.4,1.1c0.9,0.8,1.7,1.7,2.3,2.7
	c0.8,1.2,1.4,2.6,1.8,4.1c0.1,0.4,0.2,0.9,0.2,1.3c0,0.3,0.1,0.6,0.1,0.9C25.5,12.3,25.5,12.5,25.5,12.8L25.5,12.8L25.5,12.8z
	 M20.2,4.3c-0.1,0-0.1,0-0.2,0c-0.3,0-0.6,0-0.8,0c-2.7,0-5.5,0-8.2,0c-0.1,0-0.1,0-0.2,0.1c0,0-0.1,0-0.1,0.1
	c-0.2,0.2-0.4,0.3-0.6,0.5C9.9,5.1,9.7,5.3,9.5,5.5S9.1,5.9,8.9,6.1C8.6,6.3,8.3,6.6,8,6.8C7.7,7,7.5,7.2,7.3,7.4L6.6,8
	C6.3,8.2,6.1,8.4,5.9,8.6C5.7,8.8,5.6,8.9,5.4,9.1c0,0-0.1,0.1-0.1,0.1c0,0,0.1,0,0.1,0c0.2,0,0.5,0,0.8,0c0.8,0,1.7,0,2.5,0
	c0,0,0.1,0,0.1,0c0.1,0,0.1,0,0.1,0.1c0,0.1,0.1,0.3,0.1,0.4C9,10.1,9.2,10.6,9.4,11c0.2,0.5,0.6,0.8,1,1.1c0.6,0.3,1.2,0.5,1.8,0.6
	c0.2,0,0.3,0,0.5,0.1c0.1,0,0.1,0,0.1,0.2c0,0,0,0,0,0.1c-0.1,0.3-0.1,0.5-0.1,0.8c0.1,0.4,0.2,0.7,0.4,1.1c0,0,0,0.1,0.1,0.1
	c-0.2,0-0.4,0-0.6,0c-0.4,0-0.8,0.1-1.2,0.1c-0.7,0.1-1.3,0.3-1.9,0.6c-0.4,0.2-0.8,0.5-1.1,0.9c-0.2,0.3-0.4,0.6-0.6,1
	c-0.1,0.1-0.1,0.3-0.1,0.5c0,0.2,0,0.4,0,0.5c0,0.2,0,0.3,0.1,0.5c0.2,0.4,0.4,0.7,0.8,1c0.3,0.3,0.7,0.5,1,0.6
	c0.7,0.3,1.5,0.5,2.3,0.5c0.5,0,0.9,0,1.4-0.1c0.6-0.1,1.2-0.2,1.7-0.5c0.5-0.2,1-0.5,1.4-0.9c0.2-0.3,0.4-0.6,0.6-0.9
	c0.2-0.4,0.2-0.9,0.2-1.4c0-0.3-0.1-0.6-0.2-0.9c-0.1-0.3-0.3-0.7-0.5-0.9c-0.2-0.2-0.4-0.4-0.6-0.6c-0.4-0.3-0.7-0.5-1.1-0.8
	c-0.2-0.1-0.3-0.3-0.4-0.5c-0.2-0.3-0.2-0.7-0.1-1c0.1-0.2,0.2-0.4,0.4-0.5c0.2-0.2,0.4-0.3,0.6-0.5c0.2-0.2,0.3-0.3,0.5-0.5
	c0.2-0.3,0.4-0.6,0.5-1c0.1-0.3,0.1-0.7,0.1-1.1c0-0.2-0.1-0.4-0.2-0.6c-0.1-0.2-0.1-0.5-0.2-0.7c-0.1-0.1,0-0.3,0.1-0.4l0.3-0.2
	c0.4-0.3,0.8-0.6,1.2-0.9c0.2-0.2,0.5-0.3,0.7-0.5c0,0,0.1-0.1,0.1-0.1c0.1,0,0.1,0,0.1,0.1c0,0,0,0.1,0,0.1c0,0.2-0.1,0.5-0.2,0.7
	c-0.1,0.1-0.1,0.3-0.1,0.4c0,0.1,0,0.3,0,0.4c0,0.4,0,0.8,0,1.1c0,0.2,0,0.5,0,0.7c0,0.3,0,0.5,0,0.8c0,0.7,0,1.5,0,2.2
	c0,0.2,0,0.3,0.1,0.5c0.1,0.2,0.2,0.3,0.4,0.3c0.1,0,0.3,0,0.4,0c0.2,0,0.3-0.1,0.3-0.2c0-0.1,0.1-0.2,0.1-0.2
	c0-0.2,0.1-0.4,0.1-0.5c0-0.3,0-0.6,0-0.9c0-0.4,0-0.7-0.1-1.1c0-0.3,0-0.6,0-1c0-0.4,0-0.8,0-1.2V6.8c0-0.1,0-0.1,0-0.2
	c-0.1-0.2-0.2-0.4-0.2-0.6c-0.1-0.2-0.1-0.3-0.1-0.5c0-0.2,0.1-0.4,0.2-0.5c0.1-0.1,0.2-0.2,0.3-0.3C20,4.6,20.1,4.5,20.2,4.3
	C20.2,4.4,20.2,4.4,20.2,4.3L20.2,4.3z M12.9,15.4c0.8,0,1.6,0.2,2.2,0.7c0.2,0.2,0.4,0.3,0.6,0.5c0.1,0.1,0.2,0.3,0.3,0.5
	c0.2,0.4,0.2,0.8,0.2,1.1c0,0.4-0.2,0.7-0.4,1c-0.3,0.3-0.6,0.6-1.1,0.8c-0.2,0.1-0.5,0.2-0.8,0.2c-0.2,0-0.3,0-0.5,0.1
	c-0.3,0-0.6,0-0.8,0c-0.3,0-0.5,0-0.8-0.1c-0.3-0.1-0.7-0.2-1-0.3c-0.3-0.1-0.6-0.3-0.8-0.6c-0.3-0.3-0.5-0.7-0.6-1.2
	C9.5,17.6,9.6,17,10,16.5c0.2-0.2,0.4-0.4,0.6-0.5c0.4-0.3,0.9-0.4,1.4-0.5c0.1,0,0.2,0,0.4-0.1L12.9,15.4z M10.5,8.7
	c0-0.4,0-0.7,0.2-1.1c0.1-0.4,0.4-0.7,0.7-0.9c0.2-0.1,0.5-0.2,0.7-0.2c0.2,0,0.5,0,0.7,0.1c0.3,0.1,0.6,0.2,0.8,0.4
	C14.3,7.4,14.8,8.1,15,9c0.1,0.3,0.1,0.7,0.1,1c0,0.5-0.2,1.1-0.5,1.5c-0.2,0.2-0.4,0.4-0.6,0.6c-0.4,0.2-0.8,0.2-1.2,0.1
	c-0.5-0.2-0.9-0.5-1.3-0.9c-0.3-0.3-0.5-0.7-0.7-1c-0.2-0.4-0.3-0.8-0.3-1.3C10.5,8.9,10.5,8.8,10.5,8.7L10.5,8.7z"/>
</svg>
