<?xml version="1.0" encoding="utf-8"?>
<!-- Generator: Adobe Illustrator 24.0.3, SVG Export Plug-In . SVG Version: 6.00 Build 0)  -->
<svg version="1.1" id="Layer_1" xmlns="http://www.w3.org/2000/svg" xmlns:xlink="http://www.w3.org/1999/xlink" x="0px" y="0px"
	 viewBox="0 0 24.6 23.4" style="enable-background:new 0 0 24.6 23.4;" xml:space="preserve">
<style type="text/css">
	.st0{fill-rule:evenodd;clip-rule:evenodd;fill:#FFFFFF;}
</style>
<path id="in" class="st0" d="M19.1,23.4v-8.5c0-1.8-0.5-3.5-2.6-3.5s-2.9,1.8-2.9,3.6v8.5H8.1V7.8h5.5v2.1c1.1-1.7,3-2.7,5-2.6
	c2.3,0,6,1.1,6,7.2v8.9H19.1L19.1,23.4z M3.1,5.5C1.5,5.3,0.4,4,0.6,2.5C0.8,0.9,2.1-0.2,3.7,0c1.4,0.2,2.5,1.3,2.5,2.8
	C6.1,4.4,4.7,5.6,3.1,5.5 M5.8,23.4H0.3V7.8h5.5V23.4z"/>
</svg>
