<?xml version="1.0" encoding="utf-8"?>
<!-- Generator: Adobe Illustrator 24.0.3, SVG Export Plug-In . SVG Version: 6.00 Build 0)  -->
<svg version="1.1" id="Layer_1" xmlns="http://www.w3.org/2000/svg" xmlns:xlink="http://www.w3.org/1999/xlink" x="0px" y="0px"
	 viewBox="0 0 24.8 13.7" style="enable-background:new 0 0 24.8 13.7;" xml:space="preserve">
<style type="text/css">
	.st0{fill-rule:evenodd;clip-rule:evenodd;fill:#FFFFFF;}
</style>
<path class="st0" d="M7.3,0c1.1,0,2.2,0.5,2.8,1.4c0.3,0.4,0.6,0.7,0.9,1.1c1,1,1.9,1,2.9-0.1c0.3-0.3,0.6-0.7,0.9-1.1
	c1-1.3,2.8-1.7,4.3-0.9c1.5,0.7,2.3,2.3,1.9,3.9c-0.2,0.9-0.3,1.8-0.4,2.8c-0.1,0.9,0.5,1.7,1.4,1.8c0.1,0,0.3,0,0.4,0
	c1.2-0.1,2.3,0.8,2.4,2c0,0.2,0,0.4,0,0.5c0,1.3-1.1,2.3-2.3,2.3c-0.2,0-0.3,0-0.5-0.1c-1.3-0.3-2-1.6-1.7-2.9c0,0,0-0.1,0-0.1
	c0.6-2.3-0.5-3.6-2.9-3.4c-0.5,0-1,0.1-1.4,0.3c-1,0.2-1.6,1.1-1.4,2.1c0,0.2,0.1,0.4,0.3,0.6c0.6,1.2,0.1,2.6-1.1,3.2
	c0,0-0.1,0-0.1,0c-1.3,0.6-2.9,0.1-3.5-1.2c0,0,0-0.1-0.1-0.1c-0.2-0.7-0.2-1.4,0.1-2C10.5,8.8,10.2,8,9,7.5C7.8,7,6.6,7,5.5,7.6
	C4.5,7.9,3.9,9,4.3,9.9c0,0.1,0,0.1,0.1,0.2c0.2,0.5,0.3,0.9,0.3,1.4c-0.1,1.2-1.1,2.1-2.3,2.1c-0.1,0-0.2,0-0.4,0
	c-1.3-0.2-2.1-1.4-2-2.7c0.1-1.2,1.1-2.1,2.3-2.1C3.2,9,4,8.4,4.2,7.5c0-0.2,0-0.4,0-0.5c0-0.7-0.1-1.5-0.3-2.2C3.2,2.2,4.8,0,7.3,0
	z M12.4,3.9c-1.3-0.1-2.4,1-2.5,2.3c0,0.1,0,0.1,0,0.2c0,1.3,1.1,2.4,2.5,2.5c1.3,0,2.4-1.1,2.5-2.5C14.9,5,13.8,3.9,12.4,3.9
	L12.4,3.9z"/>
</svg>
