<?xml version="1.0" encoding="utf-8"?>
<!-- Generator: Adobe Illustrator 24.0.3, SVG Export Plug-In . SVG Version: 6.00 Build 0)  -->
<svg version="1.1" id="Layer_1" xmlns="http://www.w3.org/2000/svg" xmlns:xlink="http://www.w3.org/1999/xlink" x="0px" y="0px"
	 viewBox="0 0 25 25" style="enable-background:new 0 0 25 25;" xml:space="preserve">
<style type="text/css">
	.st0{fill-rule:evenodd;clip-rule:evenodd;fill:#FFFFFF;}
</style>
<path id="Reading" class="st0" d="M24.2,20.2l-11.3,4.7c-0.1,0.1-0.3,0.1-0.5,0.1c-0.2,0-0.3,0-0.5-0.1L0.7,20.2
	C0.3,20,0,19.6,0,19.1V1.2C0,0.5,0.5,0,1.2,0c0,0,0,0,0,0c0.2,0,0.3,0,0.4,0.1h0l10.8,4.5l10.8-4.5h0C23.5,0,23.6,0,23.8,0
	C24.4,0,25,0.5,25,1.2c0,0,0,0,0,0v17.9C25,19.6,24.7,20,24.2,20.2 M11.3,6.6l-9-3.7v15.4l9,3.7V6.6z M22.6,2.9l-9,3.7V22l9-3.7V2.9
	z M15.5,8.3l4.3-1.9c0.1-0.1,0.3-0.1,0.5-0.1c0.6,0,1.2,0.5,1.2,1.2c0,0.5-0.3,0.9-0.7,1.1l-4.3,1.9c-0.2,0.1-0.3,0.1-0.5,0.1
	c-0.6,0-1.2-0.5-1.2-1.2C14.8,8.9,15.1,8.5,15.5,8.3 M15.5,12.6L15.5,12.6l4.3-1.9c0.1-0.1,0.3-0.1,0.5-0.1c0.6,0,1.2,0.5,1.2,1.2
	c0,0.5-0.3,0.9-0.7,1.1l-4.3,1.9c-0.2,0.1-0.3,0.1-0.5,0.1c-0.6,0-1.2-0.5-1.2-1.2C14.8,13.2,15.1,12.8,15.5,12.6 M15.5,16.9
	L15.5,16.9l4.3-1.9c0.1-0.1,0.3-0.1,0.5-0.1c0.6,0,1.2,0.5,1.2,1.2c0,0.5-0.3,0.9-0.7,1.1L16.5,19c-0.2,0.1-0.3,0.1-0.5,0.1
	c-0.6,0-1.2-0.5-1.2-1.2C14.8,17.5,15.1,17.1,15.5,16.9 M4.7,6.2c0.2,0,0.3,0,0.5,0.1l4.3,1.9c0.6,0.3,0.8,1,0.6,1.6
	c-0.2,0.4-0.6,0.7-1.1,0.7c-0.2,0-0.3,0-0.5-0.1L4.2,8.5c-0.6-0.3-0.9-1-0.6-1.6C3.8,6.5,4.2,6.2,4.7,6.2 M4.7,10.5
	c0.2,0,0.3,0,0.5,0.1l4.3,1.9c0.6,0.3,0.8,1,0.6,1.6c-0.2,0.4-0.6,0.7-1.1,0.7c-0.2,0-0.3,0-0.5-0.1l-4.3-1.9
	c-0.6-0.3-0.9-1-0.6-1.6C3.8,10.8,4.2,10.5,4.7,10.5 M4.7,14.8c0.2,0,0.3,0,0.5,0.1l4.3,1.9c0.6,0.3,0.8,1,0.6,1.6
	c-0.2,0.4-0.6,0.7-1.1,0.7c-0.2,0-0.3,0-0.5-0.1l-4.3-1.9c-0.6-0.3-0.9-1-0.6-1.6C3.8,15.1,4.2,14.8,4.7,14.8"/>
</svg>
