<?xml version="1.0" encoding="utf-8"?>
<!-- Generator: Adobe Illustrator 24.0.3, SVG Export Plug-In . SVG Version: 6.00 Build 0)  -->
<svg version="1.1" id="Layer_1" xmlns="http://www.w3.org/2000/svg" xmlns:xlink="http://www.w3.org/1999/xlink" x="0px" y="0px"
	 viewBox="0 0 23.4 25.3" style="enable-background:new 0 0 23.4 25.3;" xml:space="preserve">
<style type="text/css">
	.st0{fill-rule:evenodd;clip-rule:evenodd;fill:#FFFFFF;}
</style>
<path id="Rsearch_Gate" class="st0" d="M0.1,6.2c0.3,0,0.6,0.1,0.8,0.1h1.7c1.9,0,3.8-0.1,5.8-0.1c1.3,0,2.5,0.4,3.6,1.1
	c1.1,0.8,1.8,2.1,1.8,3.4c0.1,1.1-0.2,2.2-0.8,3.1c-0.7,1.1-1.7,1.9-2.9,2.3c-0.1,0-0.2,0.1-0.3,0.1c0,0-0.1,0.1-0.1,0.1
	c0.2,0.3,0.4,0.7,0.6,1c1,1.6,2.1,3.1,3.3,4.6c0.5,0.5,0.9,1,1.5,1.5c0.5,0.4,1.1,0.7,1.7,0.8c0.2,0.1,0.4,0.1,0.4,0.4
	c0,0.4,0,0.5-0.4,0.6c-1.1,0.2-2.2,0.1-3.2-0.3c-0.9-0.4-1.7-1.1-2.3-1.9c-1.4-1.9-2.7-3.9-3.9-6c-0.1-0.3-0.4-0.4-0.7-0.4
	c-0.5,0-1,0-1.5-0.1c-0.3,0-0.4,0-0.4,0.4c0,0.7,0,1.4,0,2.1s0,1.4,0,2.1c0,0.5,0.1,1,0.1,1.5c0,0.7,0.6,1.2,1.2,1.2
	c0.4,0.1,0.7,0.1,1.1,0.2s0.4,0.1,0.4,0.7c0,0.3-0.1,0.3-0.5,0.3C6,25.1,5,25,4.1,25c-0.8,0-1.7,0-2.5,0c-0.3,0-0.7,0-1,0.1
	c-0.4,0-0.5,0-0.5-0.3c-0.1-0.5,0-0.7,0.3-0.7C0.6,24,0.9,24,1.1,23.9c0.6,0,1-0.5,1.1-1c0.1-0.3,0.1-0.6,0.1-1c0-4.2,0-8.4,0-12.6
	c0-0.4-0.1-0.7-0.1-1.1c-0.1-0.5-0.5-0.9-1-1L0.6,7.2C0,7.1,0,7.1,0,6.5C0,6.4,0.1,6.3,0.1,6.2z M4.7,11.4v3.2
	c0,0.5,0.1,0.6,0.6,0.6c0.7,0,1.4,0,2.1,0c1.3,0,2.4-0.6,3.2-1.7c0.5-0.8,0.7-1.7,0.6-2.6c0-1.4-0.9-2.7-2.3-3.1
	C7.6,7.5,6.4,7.4,5.2,7.6c-0.4,0-0.5,0-0.5,0.6L4.7,11.4L4.7,11.4z M21.6,4.8c0.4,0,0.9,0,1.4,0c0.4,0,0.4,0.1,0.4,0.4
	c0,0.9,0,1.8-0.2,2.7c-0.4,1.4-1.6,2.4-3.1,2.5c-0.2,0-0.5,0-0.7,0c-1.8,0-3.3-1.3-3.4-3.1c-0.1-0.9-0.1-1.9-0.1-2.8
	c0-0.6,0.1-1.3,0.2-1.9c0.2-1.3,1.2-2.3,2.5-2.5c1-0.2,2-0.1,2.8,0.3c0.6,0.3,1.1,0.8,1.5,1.4c0.2,0.3,0.1,0.4-0.2,0.5
	c-0.1,0-0.1,0.1-0.2,0.1c-0.2,0.1-0.5,0.2-0.8,0.3c-0.2-0.1-0.4-0.3-0.5-0.6c-0.4-0.6-1.1-0.9-1.8-0.8c-0.8,0-1.5,0.6-1.7,1.4
	c-0.1,0.3-0.2,0.7-0.2,1c-0.1,0.4-0.1,0.8-0.1,1.2c0,0.8,0.1,1.6,0.2,2.4C17.9,8.5,18.9,9.2,20,9c0.1,0,0.3-0.1,0.4-0.1
	c0.7-0.2,1.2-0.9,1.3-1.6c0.1-0.2,0.1-0.5,0.1-0.8c0-0.1,0-0.3-0.2-0.3c0,0-0.1,0-0.1,0h-1.2c-0.4,0-0.5-0.1-0.5-0.5
	c0-1,0-0.9,0.8-0.9L21.6,4.8L21.6,4.8L21.6,4.8z"/>
</svg>
